<mxfile host="Electron" modified="2024-05-22T13:37:30.748Z" agent="Mozilla/5.0 (Windows NT 10.0; Win64; x64) AppleWebKit/537.36 (KHTML, like Gecko) draw.io/22.1.18 Chrome/120.0.6099.199 Electron/28.1.2 Safari/537.36" etag="5A5sEq9U2644EV_KBId-" version="22.1.18" type="device">
  <diagram name="Страница — 1" id="Jmx_xb76YVXJTKnf_Gih">
    <mxGraphModel dx="1390" dy="2043" grid="1" gridSize="10" guides="1" tooltips="1" connect="1" arrows="1" fold="1" page="1" pageScale="1" pageWidth="827" pageHeight="1169" math="0" shadow="0">
      <root>
        <mxCell id="0" />
        <mxCell id="1" parent="0" />
        <mxCell id="Po6J92bwT0HOYJmBbjon-1" value="" style="rounded=0;whiteSpace=wrap;html=1;movable=0;resizable=0;rotatable=0;deletable=0;editable=0;locked=1;connectable=0;" parent="1" vertex="1">
          <mxGeometry y="2" width="273" height="1158" as="geometry" />
        </mxCell>
        <mxCell id="Po6J92bwT0HOYJmBbjon-3" value="" style="rounded=0;whiteSpace=wrap;html=1;movable=0;resizable=0;rotatable=0;deletable=0;editable=0;locked=1;connectable=0;" parent="1" vertex="1">
          <mxGeometry x="274" y="2" width="273" height="1158" as="geometry" />
        </mxCell>
        <mxCell id="Po6J92bwT0HOYJmBbjon-4" value="" style="rounded=0;whiteSpace=wrap;html=1;movable=0;resizable=0;rotatable=0;deletable=0;editable=0;locked=1;connectable=0;" parent="1" vertex="1">
          <mxGeometry x="548" y="2" width="273" height="1158" as="geometry" />
        </mxCell>
        <mxCell id="Po6J92bwT0HOYJmBbjon-5" value="Пользователь" style="text;html=1;strokeColor=none;fillColor=none;align=center;verticalAlign=middle;whiteSpace=wrap;rounded=0;movable=0;resizable=0;rotatable=0;deletable=0;editable=0;locked=1;connectable=0;" parent="1" vertex="1">
          <mxGeometry y="2" width="270" height="28" as="geometry" />
        </mxCell>
        <mxCell id="Po6J92bwT0HOYJmBbjon-6" value="Приложение" style="text;html=1;strokeColor=none;fillColor=none;align=center;verticalAlign=middle;whiteSpace=wrap;rounded=0;movable=0;resizable=0;rotatable=0;deletable=0;editable=0;locked=1;connectable=0;" parent="1" vertex="1">
          <mxGeometry x="275.5" y="4" width="270" height="28" as="geometry" />
        </mxCell>
        <mxCell id="Po6J92bwT0HOYJmBbjon-7" value="Сервер" style="text;html=1;strokeColor=none;fillColor=none;align=center;verticalAlign=middle;whiteSpace=wrap;rounded=0;movable=0;resizable=0;rotatable=0;deletable=0;editable=0;locked=1;connectable=0;" parent="1" vertex="1">
          <mxGeometry x="547" y="4" width="270" height="28" as="geometry" />
        </mxCell>
        <mxCell id="Po6J92bwT0HOYJmBbjon-8" value="" style="endArrow=none;html=1;rounded=0;entryX=1.002;entryY=0.024;entryDx=0;entryDy=0;entryPerimeter=0;exitX=0;exitY=0.033;exitDx=0;exitDy=0;exitPerimeter=0;movable=0;resizable=0;rotatable=0;deletable=0;editable=0;locked=1;connectable=0;" parent="1" source="Po6J92bwT0HOYJmBbjon-1" edge="1">
          <mxGeometry width="50" height="50" relative="1" as="geometry">
            <mxPoint x="330" y="280.21" as="sourcePoint" />
            <mxPoint x="821.5460000000003" y="40.00199999999992" as="targetPoint" />
          </mxGeometry>
        </mxCell>
        <mxCell id="Po6J92bwT0HOYJmBbjon-12" value="" style="ellipse;html=1;shape=startState;fillColor=#000000;strokeColor=#ff0000;" parent="1" vertex="1">
          <mxGeometry x="121.5" y="60" width="30" height="30" as="geometry" />
        </mxCell>
        <mxCell id="Po6J92bwT0HOYJmBbjon-13" value="" style="edgeStyle=orthogonalEdgeStyle;html=1;verticalAlign=bottom;endArrow=open;endSize=8;strokeColor=#ff0000;rounded=0;" parent="1" source="Po6J92bwT0HOYJmBbjon-12" edge="1">
          <mxGeometry relative="1" as="geometry">
            <mxPoint x="137" y="130" as="targetPoint" />
            <Array as="points">
              <mxPoint x="137" y="90" />
              <mxPoint x="137" y="90" />
            </Array>
          </mxGeometry>
        </mxCell>
        <mxCell id="_p6BebtUVBuQHcfP5eKH-2" style="edgeStyle=orthogonalEdgeStyle;rounded=0;orthogonalLoop=1;jettySize=auto;html=1;entryX=0;entryY=0.5;entryDx=0;entryDy=0;" edge="1" parent="1" source="Po6J92bwT0HOYJmBbjon-14" target="_p6BebtUVBuQHcfP5eKH-1">
          <mxGeometry relative="1" as="geometry" />
        </mxCell>
        <mxCell id="Po6J92bwT0HOYJmBbjon-14" value="авторизация пользователя" style="rounded=1;whiteSpace=wrap;html=1;" parent="1" vertex="1">
          <mxGeometry x="75" y="140" width="120" height="60" as="geometry" />
        </mxCell>
        <mxCell id="Po6J92bwT0HOYJmBbjon-48" value="" style="ellipse;html=1;shape=endState;fillColor=#000000;strokeColor=#ff0000;" parent="1" vertex="1">
          <mxGeometry x="670" y="730" width="30" height="30" as="geometry" />
        </mxCell>
        <mxCell id="_p6BebtUVBuQHcfP5eKH-4" style="edgeStyle=orthogonalEdgeStyle;rounded=0;orthogonalLoop=1;jettySize=auto;html=1;entryX=0.5;entryY=0;entryDx=0;entryDy=0;" edge="1" parent="1" source="_p6BebtUVBuQHcfP5eKH-1" target="_p6BebtUVBuQHcfP5eKH-3">
          <mxGeometry relative="1" as="geometry" />
        </mxCell>
        <mxCell id="_p6BebtUVBuQHcfP5eKH-1" value="проверка подлинности пин-еода" style="rounded=1;whiteSpace=wrap;html=1;" vertex="1" parent="1">
          <mxGeometry x="354" y="140" width="120" height="60" as="geometry" />
        </mxCell>
        <mxCell id="_p6BebtUVBuQHcfP5eKH-7" style="edgeStyle=orthogonalEdgeStyle;rounded=0;orthogonalLoop=1;jettySize=auto;html=1;entryX=0.5;entryY=0;entryDx=0;entryDy=0;" edge="1" parent="1" source="_p6BebtUVBuQHcfP5eKH-3" target="_p6BebtUVBuQHcfP5eKH-5">
          <mxGeometry relative="1" as="geometry" />
        </mxCell>
        <mxCell id="_p6BebtUVBuQHcfP5eKH-3" value="запрос серверу на получение данных" style="rounded=1;whiteSpace=wrap;html=1;" vertex="1" parent="1">
          <mxGeometry x="354" y="240" width="120" height="60" as="geometry" />
        </mxCell>
        <mxCell id="_p6BebtUVBuQHcfP5eKH-8" style="edgeStyle=orthogonalEdgeStyle;rounded=0;orthogonalLoop=1;jettySize=auto;html=1;entryX=1;entryY=0.5;entryDx=0;entryDy=0;" edge="1" parent="1" source="_p6BebtUVBuQHcfP5eKH-5" target="_p6BebtUVBuQHcfP5eKH-6">
          <mxGeometry relative="1" as="geometry" />
        </mxCell>
        <mxCell id="_p6BebtUVBuQHcfP5eKH-5" value="отправка данных" style="rounded=1;whiteSpace=wrap;html=1;" vertex="1" parent="1">
          <mxGeometry x="624.5" y="360" width="120" height="60" as="geometry" />
        </mxCell>
        <mxCell id="_p6BebtUVBuQHcfP5eKH-12" style="edgeStyle=orthogonalEdgeStyle;rounded=0;orthogonalLoop=1;jettySize=auto;html=1;entryX=1;entryY=0.5;entryDx=0;entryDy=0;" edge="1" parent="1" source="_p6BebtUVBuQHcfP5eKH-6" target="_p6BebtUVBuQHcfP5eKH-9">
          <mxGeometry relative="1" as="geometry" />
        </mxCell>
        <mxCell id="_p6BebtUVBuQHcfP5eKH-6" value="Вывод информации" style="rounded=1;whiteSpace=wrap;html=1;" vertex="1" parent="1">
          <mxGeometry x="354" y="360" width="120" height="60" as="geometry" />
        </mxCell>
        <mxCell id="_p6BebtUVBuQHcfP5eKH-13" style="edgeStyle=orthogonalEdgeStyle;rounded=0;orthogonalLoop=1;jettySize=auto;html=1;entryX=0.5;entryY=0;entryDx=0;entryDy=0;" edge="1" parent="1" source="_p6BebtUVBuQHcfP5eKH-9" target="_p6BebtUVBuQHcfP5eKH-10">
          <mxGeometry relative="1" as="geometry" />
        </mxCell>
        <mxCell id="_p6BebtUVBuQHcfP5eKH-9" value="Переход на страницу новой операции" style="rounded=1;whiteSpace=wrap;html=1;" vertex="1" parent="1">
          <mxGeometry x="80" y="360" width="120" height="60" as="geometry" />
        </mxCell>
        <mxCell id="_p6BebtUVBuQHcfP5eKH-14" style="edgeStyle=orthogonalEdgeStyle;rounded=0;orthogonalLoop=1;jettySize=auto;html=1;entryX=0;entryY=0.5;entryDx=0;entryDy=0;" edge="1" parent="1" source="_p6BebtUVBuQHcfP5eKH-10" target="_p6BebtUVBuQHcfP5eKH-11">
          <mxGeometry relative="1" as="geometry" />
        </mxCell>
        <mxCell id="_p6BebtUVBuQHcfP5eKH-10" value="Заполнение данныз" style="rounded=1;whiteSpace=wrap;html=1;" vertex="1" parent="1">
          <mxGeometry x="80" y="480" width="120" height="60" as="geometry" />
        </mxCell>
        <mxCell id="_p6BebtUVBuQHcfP5eKH-18" style="edgeStyle=orthogonalEdgeStyle;rounded=0;orthogonalLoop=1;jettySize=auto;html=1;entryX=0.5;entryY=0;entryDx=0;entryDy=0;" edge="1" parent="1" source="_p6BebtUVBuQHcfP5eKH-11" target="_p6BebtUVBuQHcfP5eKH-15">
          <mxGeometry relative="1" as="geometry" />
        </mxCell>
        <mxCell id="_p6BebtUVBuQHcfP5eKH-11" value="Проверка на прохождение валидации" style="rounded=1;whiteSpace=wrap;html=1;" vertex="1" parent="1">
          <mxGeometry x="354" y="480" width="120" height="60" as="geometry" />
        </mxCell>
        <mxCell id="_p6BebtUVBuQHcfP5eKH-19" style="edgeStyle=orthogonalEdgeStyle;rounded=0;orthogonalLoop=1;jettySize=auto;html=1;entryX=0.5;entryY=1;entryDx=0;entryDy=0;" edge="1" parent="1" source="_p6BebtUVBuQHcfP5eKH-15" target="_p6BebtUVBuQHcfP5eKH-10">
          <mxGeometry relative="1" as="geometry" />
        </mxCell>
        <mxCell id="_p6BebtUVBuQHcfP5eKH-22" style="edgeStyle=orthogonalEdgeStyle;rounded=0;orthogonalLoop=1;jettySize=auto;html=1;entryX=0;entryY=0.5;entryDx=0;entryDy=0;" edge="1" parent="1" source="_p6BebtUVBuQHcfP5eKH-15" target="_p6BebtUVBuQHcfP5eKH-16">
          <mxGeometry relative="1" as="geometry" />
        </mxCell>
        <mxCell id="_p6BebtUVBuQHcfP5eKH-15" value="валидация пройдена?" style="rhombus;whiteSpace=wrap;html=1;" vertex="1" parent="1">
          <mxGeometry x="373" y="595" width="80" height="80" as="geometry" />
        </mxCell>
        <mxCell id="_p6BebtUVBuQHcfP5eKH-25" style="edgeStyle=orthogonalEdgeStyle;rounded=0;orthogonalLoop=1;jettySize=auto;html=1;entryX=0.5;entryY=0;entryDx=0;entryDy=0;" edge="1" parent="1" source="_p6BebtUVBuQHcfP5eKH-16" target="Po6J92bwT0HOYJmBbjon-48">
          <mxGeometry relative="1" as="geometry" />
        </mxCell>
        <mxCell id="_p6BebtUVBuQHcfP5eKH-16" value="Сохранение новой операции" style="rounded=1;whiteSpace=wrap;html=1;" vertex="1" parent="1">
          <mxGeometry x="624.5" y="605" width="120" height="60" as="geometry" />
        </mxCell>
        <mxCell id="_p6BebtUVBuQHcfP5eKH-20" value="нет" style="text;html=1;strokeColor=none;fillColor=none;align=center;verticalAlign=middle;whiteSpace=wrap;rounded=0;" vertex="1" parent="1">
          <mxGeometry x="275.5" y="630" width="60" height="30" as="geometry" />
        </mxCell>
      </root>
    </mxGraphModel>
  </diagram>
</mxfile>
